<?xml version="1.0" encoding="utf-8"?>

<!DOCTYPE svg PUBLIC "-//W3C//DTD SVG 1.1//EN" "http://www.w3.org/Graphics/SVG/1.1/DTD/svg11.dtd">
<svg version="1.1" id="Layer_1" xmlns="http://www.w3.org/2000/svg" xmlns:xlink="http://www.w3.org/1999/xlink" x="0px" y="0px"
	 viewBox="0 0 2179 3003" enable-background="new 0 0 2179 3003" xml:space="preserve">
<g>
	<path fill="#050095" stroke="#4B5557" stroke-width="0.0938" d="M507.01,2223.53c16.19-0.01,32.45-0.74,48.59,0.66
		c15.81,2.22,31.62,4.88,47.03,9.13c4.93,1.23,10.05,1.38,15.05,2.27c5.3,1.18,10.3,3.39,15.37,5.31
		c7.38,2.83,13.41,8.96,15.92,16.48c1.45,4.02-0.12,8.58-2.8,11.73c-3.4,3.14-7.87,4.73-11.99,6.71c2.28,5.54,5.57,12.43,1.77,18.08
		c-4.02,4.82-10.72,5.8-16.35,7.78c-1.065,0.375-0.222,17.061-0.224,18.921c-0.008,6.582,0.003,13.167,0.105,19.748
		c0.195,12.583,0.633,25.138,1.813,37.674c3.267,34.675,9.199,73.069,27.44,103.337c5.081,8.431,10.194,16.924,16.075,24.86
		c6.25,8.05,11.82,16.66,19.02,23.94c2.098,2.122,3.85,4.595,5.997,6.704c2.022,1.987,4.177,3.654,6.165,5.727
		c4.428,4.617,8.961,9.134,13.595,13.545c9.267,8.823,18.934,17.225,28.962,25.171c15.845,12.555,32.083,24.768,48.411,36.694
		c8.47,6.9,17.21,13.47,25.85,20.17c6.74,5.6,13.47,11.21,20.5,16.45c17.443,13.002,34.035,27.207,49.032,42.988
		c33.5,35.25,55.71,78.42,54.773,128.03c-0.803,42.507-18.285,90.323-52.198,117.675c-2.499,2.016-5.105,3.958-7.577,6.038
		c-7.1,5.9-15.84,9.61-24.91,11.16c-25.891,4.425-52.858,2.629-79.01,2.661c-54.449,0-108.814,0.041-163.267,0.402
		c-54.539,0.365-109.087,0.542-163.612,1.157c-55.52,0.627-111.045,0.768-166.567,0.422c-18.507-0.115-37.619,0.747-56.025-1.393
		c-9.09-0.44-17.74-3.54-26.2-6.62c-38.842-14.141-65.251-53.485-75.643-92.067c-6.619-24.575-7.979-50.624-2.492-75.555
		c4.562-20.73,15.64-39.828,26.891-57.659c12.569-19.919,27.328-38.499,43.641-55.472c34.535-35.931,78.353-60.608,117.852-90.317
		c31.242-23.497,59.952-50.218,84.241-80.89c4.955-7.552,10.804-13.94,15.344-21.853c4.602-8.022,8.681-16.344,12.209-24.892
		c18.927-45.857,24.379-99.203,18.752-148.252c-0.061-0.527-0.122-1.053-0.184-1.58c-6.632-2.271-14.475-4.219-18.272-10.722
		c-4.41-5.91-2.46-13.6-1.23-20.22c-6.19-2.39-13.38-4.38-17.23-10.25c-3.17-4.62-2.77-10.7-0.89-15.73
		c2.02-6.61,8.32-10.49,13.96-13.77c7.98-3.81,16.52-6.62,25.33-7.67C462.082,2227.612,484.5,2223.214,507.01,2223.53
		 M559.53,2232.78c-2.78,0.75-1.7,4.37-2.26,6.52c9.43,0.87,18.73,3.08,28.22,3.25c-0.06-2.26-0.1-4.51-0.14-6.74
		C576.88,2234.06,568.25,2231.53,559.53,2232.78 M412.67,2257.87c0.43,3.93,3.95,5.99,7.27,7.35c0.48-0.59,1.44-1.75,1.93-2.34
		c-1.44-5.93-1.38-12.04-1.44-18.09C416.27,2247.86,412.46,2252.4,412.67,2257.87 M636.1,2266.02c1.13-2.11,3.03-4.21,2.48-6.76
		c-0.68-4.68-4.45-8.01-8.24-10.37C631.03,2254.95,633.76,2260.46,636.1,2266.02 M477.67,2269.22c-8.4,1.22-16.92,1.35-25.28,2.92
		c-7.95,1.2-16.21,3.34-22.29,8.9c-2.92,2.45-3.34,6.68-2.48,10.19c1.24,2.58,3.81,4.4,6.53,5.17c2.01,0.22,3.8-1.06,5.63-1.71
		c-1.54-3.97-3.93-9.06-1.03-12.95c4.86-3.54,11.2-3.88,16.95-4.81c9.45-0.86,18.83-2.54,28.34-2.61
		c10.27-1.28,20.64-0.75,30.96-0.76c8.66,0.14,17.37-0.49,25.99,0.72c19.39,0.6,38.86,2.53,57.7,7.35c3.92,1.18,8.31,2.19,11.2,5.29
		c0.84,3.25,0.98,6.65,1.38,10c3.95-1.44,8.02-2.66,11.68-4.76c1.73-1.14,3.83-2.83,3.57-5.12c-1.43-4.05-5.83-5.72-9.47-7.18
		c-9.44-3.28-19.16-5.89-29.07-7.19c-17.8-1.85-35.6-4.43-53.54-4.3c-10.46-1.14-21.02-1.13-31.51-0.55
		C494.55,2269.06,486.03,2267.81,477.67,2269.22 M574.82,2320.08c-0.75,11.33-3.51,22.5-3.31,33.92c0.07,9.81-0.51,19.67,0.79,29.45
		c0.17,7.19,0.35,14.4,1.4,21.55c2.42,16.79,3.25,33.8,6.67,50.45c4.23,28.51,13.81,55.85,24.48,82.5
		c4.17,10.71,10.33,20.47,15.17,30.87c8.07,16.47,18.04,31.88,27.33,47.67c10.39,16.81,17.58,35.34,27.57,52.37
		c2.3,4.05,3.57,8.57,5.41,12.84c1.45,3.77,6.05,4.11,9.35,5.35c-0.03-3.98-0.1-8-2.01-11.58c-6.06-16.17-14.92-31.05-22.79-46.35
		c-4.54-8.26-10.88-15.38-15.15-23.81c-9.61-15.94-18.81-32.11-27.25-48.7c-4.85-9.93-10.56-19.48-14.11-29.99
		c-8.46-20.93-15.05-42.65-18.97-64.9c-2.67-14.87-5.37-29.76-7.07-44.77c-1.3-8.71-0.43-17.55-1.7-26.25
		c-0.1-15.89-0.76-31.85,0.85-47.68c-0.15-7.94,0.96-15.81,1.16-23.73c0.45-6.14,1.66-12.35,0.7-18.49c-1.2-0.9-2.42-1.71-3.68-2.43
		C575.27,2304.76,575.9,2312.74,574.82,2320.08 M588.64,2303.14c0.22,10.32-1.2,20.56-1.14,30.88c-0.08,5.02-1.28,10.02-0.68,15.07
		c1.47,11.92-0.27,24,1.51,35.9c0.03,10.46,2.53,20.66,3.98,30.97c1.52,12.81,4.95,25.27,7.2,37.96
		c3.83,14.24,6.84,28.71,11.13,42.84c3.01,9.03,6.51,17.91,10.22,26.68c6.1,11.94,11.3,24.32,17.79,36.07
		c12.73,26.14,29.86,49.78,43.58,75.38c3.85,6.68,6.47,13.98,10.34,20.66c3.51,6.06,5.68,12.77,8.98,18.96
		c2.43,4.53,3.63,9.6,5.89,14.23c0.85,2.09,3.14,2.79,5.16,3.3c7.46,1.7,15.1,2.42,22.71,3.22c6.81,0.38,13.62,1.79,20.45,0.75
		c-4.24-14.09-7.18-28.74-14.16-41.82c-5.24-9.8-9.06-20.36-15.33-29.58c-9.19-13.23-19.85-25.34-30.71-37.2
		c-5.39-6.58-12.38-11.63-17.49-18.46c-21.77-24.78-40.37-52.44-54.22-82.41c-2.56-7.13-4.85-14.36-7.8-21.34
		c-4.06-12.07-6.94-24.53-9-37.09c-2.77-12.96-3.32-26.24-4.46-39.39c-0.1-16.85-0.17-33.7,0.01-50.54
		c0.65-9.1,1.62-18.31,0.63-27.38C599.84,2306.21,594.25,2303.61,588.64,2303.14 M468.25,2392.32c-1.83-0.13-3.75,0.7-4.41,2.54
		c-1.44,3.56-1.73,7.46-2.16,11.26c-1.46,21.63-4.65,43.21-10.81,64.03c-3.62,13.02-9.03,25.42-14.03,37.95
		c-4.72,11.11-10.77,21.58-16.94,31.93c-2.3,4.06-4.95,8.19-5.54,12.94c1.81,5.12,8.35,4.25,11.49,1c5.43-5.72,8.59-13.1,12.21-20
		c7.82-14.7,13.4-30.43,19.1-46.02c4.78-15.68,10-31.28,12.67-47.49c2.04-14.16,5.52-28.53,2.82-42.85
		C472.11,2395.29,471.48,2391.38,468.25,2392.32 M368.87,2579.89c-5.39,5.31-10.74,10.75-15.18,16.91
		c-5.56,7.72-11.8,14.95-16.98,22.96c-5.33,8.31-12.03,15.69-16.66,24.46c-2.4,4.61-6,8.65-7.49,13.71
		c-0.18,2.44-1.13,5.73,0.92,7.64c4.24,0.28,8.37-0.96,12.6-0.98c5.05-0.25,10.61,0.61,15.07-2.33c5.31-3.61,8.11-9.68,11-15.19
		c6.47-13.85,14.67-26.83,23.94-38.94c7.05-10.92,17.65-18.72,26.03-28.48c-7.04-2.87-14.72-2.97-22.14-3.99
		C375.79,2574.95,371.77,2577.01,368.87,2579.89 M412.16,2585.14c-5.59,4.79-10.01,10.78-14.26,16.75
		c-10.27,15.01-20.44,30.17-28.79,46.35c-2.01,3.69-4.89,6.91-6.45,10.86c-0.38,2.01-1.07,4.86,0.88,6.34
		c1.44,1.3,3.42,0.72,5.16,0.58c8.25-1.4,17.19,0.8,24.87-3.37c7.33-4.45,11.83-12.13,15.66-19.56
		c5.48-10.26,11.01-20.53,18.01-29.85c5.01-7.91,11.19-14.95,16.77-22.44c-7.33-3.11-15.04-5.13-22.8-6.76
		C418.2,2583.51,414.58,2582.72,412.16,2585.14 M507.79,2592.7c-5.7,1.7-9.74,6.36-13.22,10.93c6.03,1.63,12.28,0.79,18.44,0.85
		c10.66-0.04,21.33,0.12,32,0.13c13.04,0.14,25.42,4.69,38.15,6.82c5,1.12,8.63-3.14,11.7-6.34c-8.37-4.87-18.08-6.08-27.12-9.14
		c-9.03-2.99-18.55-4.06-27.99-4.67C529.15,2590.07,518.11,2589.51,507.79,2592.7 M212.55,2679.5
		c-10.66,11.99-22.8,22.68-32.34,35.65c-9.67,13.1-18.72,26.84-24.78,42.04c-6.31,13.69-8.26,28.76-10.23,43.55
		c-1.3,8.25-1.94,16.6-1.65,24.96c0.22,20.39,7.06,40.21,17.01,57.85c4.8,7.95,10.74,15.15,16.54,22.4
		c4.39,4.87,8.99,10.24,15.45,12.33c2.46,0.78,4.51-1.33,6.56-2.32c-2.08-1.98-4.19-3.9-6.37-5.74
		c-7.27-5.91-12.54-13.85-17.19-21.88c-3.8-7.59-7.79-15.12-10.73-23.09c-4.05-11.74-6.88-23.99-7.4-36.41
		c0.07-11.92-0.52-23.94,1.81-35.69c2.06-10.71,3.73-21.65,8.23-31.67c4.2-11.44,8.1-23.11,14.51-33.54
		c3.04-4.64,5.86-9.41,8.85-14.06c7.38-10.78,16.22-20.44,24.58-30.43c5.31-6.13,13.45-10.89,14.53-19.64
		C222.6,2667.1,217.85,2673.77,212.55,2679.5 M812.9,2686.62c5.53,11.4,16.8,18.25,24.04,28.4c6.11,8.2,12.85,15.91,18.6,24.38
		c11.57,15.34,20.95,32.33,27.4,50.45c2.65,8.65,4.47,17.57,5.42,26.57c0.35,11.34,0.56,22.73-0.68,34.03
		c0.31,11.46-4.1,22.26-8.6,32.58c-2.43,5.31-4.75,10.87-8.8,15.2c-8.34,8.71-18.78,15.59-30.39,19c-9.64,2.08-19.69,2.17-29.07,5.5
		c5.2,0.75,10.51,1.08,15.73,0.28c7.2-1.12,14.69-1.28,21.5-4.14c16.13-6.42,29.06-19.6,36.66-35.05
		c4.01-8.04,7.45-16.42,9.75-25.11c2.47-12.44,4.31-25.04,4.91-37.71c-0.92-18.76-5.54-37.39-14.23-54.07
		c-7.45-14.93-17.77-28.1-27.77-41.35c-7.23-9.09-16.69-15.96-24.9-24.07C826.22,2696.2,820.51,2690,812.9,2686.62 M304.68,2694.43
		c-3.21,0.71-6.98,1.49-8.73,4.63c-2.6,4.3-3.71,9.27-5.16,14.05c-1.67,6.32-4.57,12.33-5.24,18.91c-0.5,5.26-1.95,10.36-3.18,15.5
		c-2.46,12.99-2.07,26.29-1.76,39.45c0.82,5.18,0.69,11.02,3.82,15.47c5.27,0.66,10.55-0.36,15.78-0.91
		c5.77-0.47,11.49-1.31,17.2-2.21c0.25-26.4-1.28-53.06,4.03-79.09c1.26-9.26,5.91-17.54,7.79-26.63c-3.19-0.74-6.47-1.38-9.74-0.78
		C314.58,2693.63,309.54,2693.22,304.68,2694.43 M336.45,2760.98c0.09,5.36-1,10.64-0.93,16.01c-0.1,5.69,0.98,11.32,0.96,17.03
		c0.21,1.91-0.18,5.21,2.58,5.34c6.02,0.81,12-0.83,18.02-0.78c3.92-0.15,7.88,0.2,11.78-0.38c2.07-0.42,4.61-1.83,4.46-4.24
		c-0.47-6.37-2.48-12.66-1.6-19.09c0.93-6.12,0.63-12.3,1.08-18.43c1.48-11.98,1.95-24.13,5.01-35.85
		c0.99-4.73,2.87-9.37,2.78-14.24c-1.7-2.33-4.71-3.06-7.31-3.85c-7.73-1.98-15.62-3.29-23.53-4.35
		C338.88,2717.19,337.77,2739.63,336.45,2760.98 M690.78,2728.13c3.69,4.45,8.97,7.81,15,7.06c-0.21-3.98-0.35-8.11-2.15-11.73
		c-0.85-1.73-2.38-3.79-4.56-2.96C694.92,2720.98,692.91,2725.06,690.78,2728.13 M725.95,2724.44l-0.86,0.03
		c-1.66,2.72,0.52,5.88,1.75,8.39c1.64,3.52,5.82,3.92,9.19,4.6c7.65,1.14,14.94,3.81,22.45,5.57c1.79,0.29,4.07,1.28,5.11-0.86
		c-0.75-4.24-1.86-9.77-6.65-11.11C746.97,2727.56,736.47,2725.26,725.95,2724.44 M704.39,2761.53c-0.59,0.53-1.19,1.07-1.82,1.61
		c2.65,10.46,6.7,20.53,8.63,31.18c5.24,22.83,4.54,46.4,4.44,69.68c0.02,5.09-1.14,10.16-0.54,15.28c3.39-7.42,4.78-15.5,6.3-23.44
		c1.84-12.21,3.51-24.5,3.01-36.87c-0.57-11.38-1.85-22.74-3.86-33.95c-1.04-5.93-1.74-12.04-4.33-17.52
		C714.06,2763.06,708.47,2762.99,704.39,2761.53 M730.46,2767.26c-0.4,7.89,2.1,15.51,2.39,23.37c0.94,7.07,1.93,14.13,1.84,21.29
		c1.2,9.65,0.82,19.39,0.88,29.1c0.04,6.66-1.31,13.22-2.46,19.77c-1.47,8.26-5.08,15.93-7.07,24.07
		c9.43-9.25,17.31-20.19,22.03-32.58c8.54-20.8,13.14-43.05,15.26-65.37c0-3.75,0.82-7.84-0.97-11.28c-2.79-1.81-6.12-2.43-9.28-3.2
		C745.52,2770.76,737.92,2769.28,730.46,2767.26 M813.53,2837.26c-1.27,7.55-4.67,14.86-3.85,22.67c3.93-6.94,5.49-14.82,7.61-22.4
		c3.46-12.02,2.31-24.67,1.84-36.98C816.87,2812.72,816.5,2825.19,813.53,2837.26z"/>
	<path fill="#FFFFFF" stroke="#FFFFFF" stroke-width="0.0938" d="M559.53,2232.78c8.72-1.25,17.35,1.28,25.82,3.03
		c0.04,2.23,0.08,4.48,0.14,6.74c-9.49-0.17-18.79-2.38-28.22-3.25C557.83,2237.15,556.75,2233.53,559.53,2232.78z"/>
	<path fill="#FFFFFF" stroke="#FFFFFF" stroke-width="0.0938" d="M412.67,2257.87c-0.21-5.47,3.6-10.01,7.76-13.08
		c0.06,6.05,0,12.16,1.44,18.09c-0.49,0.59-1.45,1.75-1.93,2.34C416.62,2263.86,413.1,2261.8,412.67,2257.87z"/>
	<path fill="#FFFFFF" stroke="#FFFFFF" stroke-width="0.0938" d="M636.1,2266.02c-2.34-5.56-5.07-11.07-5.76-17.13
		c3.79,2.36,7.56,5.69,8.24,10.37C639.13,2261.81,637.23,2263.91,636.1,2266.02z"/>
	<path fill="#FFFFFF" stroke="#FFFFFF" stroke-width="0.0938" d="M477.67,2269.22c8.36-1.41,16.88-0.16,25.26-1.4
		c10.49-0.58,21.05-0.59,31.51,0.55c17.94-0.13,35.74,2.45,53.54,4.3c9.91,1.3,19.63,3.91,29.07,7.19c3.64,1.46,8.04,3.13,9.47,7.18
		c0.26,2.29-1.84,3.98-3.57,5.12c-3.66,2.1-7.73,3.32-11.68,4.76c-0.4-3.35-0.54-6.75-1.38-10c-2.89-3.1-7.28-4.11-11.2-5.29
		c-18.84-4.82-38.31-6.75-57.7-7.35c-8.62-1.21-17.33-0.58-25.99-0.72c-10.32,0.01-20.69-0.52-30.96,0.76
		c-9.51,0.07-18.89,1.75-28.34,2.61c-5.75,0.93-12.09,1.27-16.95,4.81c-2.9,3.89-0.51,8.98,1.03,12.95
		c-1.83,0.65-3.62,1.93-5.63,1.71c-2.72-0.77-5.29-2.59-6.53-5.17c-0.86-3.51-0.44-7.74,2.48-10.19c6.08-5.56,14.34-7.7,22.29-8.9
		C460.75,2270.57,469.27,2270.44,477.67,2269.22z"/>
	<path fill="#FFFFFF" stroke="#FFFFFF" stroke-width="0.0938" d="M574.82,2320.08c1.08-7.34,0.45-15.32,4.84-21.71
		c1.26,0.72,2.48,1.53,3.68,2.43c0.96,6.14-0.25,12.35-0.7,18.49c-0.2,7.92-1.31,15.79-1.16,23.73
		c-1.61,15.83-0.95,31.79-0.85,47.68c1.27,8.7,0.4,17.54,1.7,26.25c1.7,15.01,4.4,29.9,7.07,44.77
		c3.92,22.25,10.51,43.97,18.97,64.9c3.55,10.51,9.26,20.06,14.11,29.99c8.44,16.59,17.64,32.76,27.25,48.7
		c4.27,8.43,10.61,15.55,15.15,23.81c7.87,15.3,16.73,30.18,22.79,46.35c1.91,3.58,1.98,7.6,2.01,11.58
		c-3.3-1.24-7.9-1.58-9.35-5.35c-1.84-4.27-3.11-8.79-5.41-12.84c-9.99-17.03-17.18-35.56-27.57-52.37
		c-9.29-15.79-19.26-31.2-27.33-47.67c-4.84-10.4-11-20.16-15.17-30.87c-10.67-26.65-20.25-53.99-24.48-82.5
		c-3.42-16.65-4.25-33.66-6.67-50.45c-1.05-7.15-1.23-14.36-1.4-21.55c-1.3-9.78-0.72-19.64-0.79-29.45
		C571.31,2342.58,574.07,2331.41,574.82,2320.08z"/>
	<path fill="#FFFFFF" stroke="#FFFFFF" stroke-width="0.0938" d="M588.64,2303.14c5.61,0.47,11.2,3.07,14.59,7.66
		c0.99,9.07,0.02,18.28-0.63,27.38c-0.18,16.84-0.11,33.69-0.01,50.54c1.14,13.15,1.69,26.43,4.46,39.39
		c2.06,12.56,4.94,25.02,9,37.09c2.95,6.98,5.24,14.21,7.8,21.34c13.85,29.97,32.45,57.63,54.22,82.41
		c5.11,6.83,12.1,11.88,17.49,18.46c10.86,11.86,21.52,23.97,30.71,37.2c6.27,9.22,10.09,19.78,15.33,29.58
		c6.98,13.08,9.92,27.73,14.16,41.82c-6.83,1.04-13.64-0.37-20.45-0.75c-7.61-0.8-15.25-1.52-22.71-3.22
		c-2.02-0.51-4.31-1.21-5.16-3.3c-2.26-4.63-3.46-9.7-5.89-14.23c-3.3-6.19-5.47-12.9-8.98-18.96c-3.87-6.68-6.49-13.98-10.34-20.66
		c-13.72-25.6-30.85-49.24-43.58-75.38c-6.49-11.75-11.69-24.13-17.79-36.07c-3.71-8.77-7.21-17.65-10.22-26.68
		c-4.29-14.13-7.3-28.6-11.13-42.84c-2.25-12.69-5.68-25.15-7.2-37.96c-1.45-10.31-3.95-20.51-3.98-30.97
		c-1.78-11.9-0.04-23.98-1.51-35.9c-0.6-5.05,0.6-10.05,0.68-15.07C587.44,2323.7,588.86,2313.46,588.64,2303.14z"/>
	<path fill="#FFFFFF" stroke="#FFFFFF" stroke-width="0.0938" d="M468.25,2392.32c3.23-0.94,3.86,2.97,4.4,5.29
		c2.7,14.32-0.78,28.69-2.82,42.85c-2.67,16.21-7.89,31.81-12.67,47.49c-5.7,15.59-11.28,31.32-19.1,46.02
		c-3.62,6.9-6.78,14.28-12.21,20c-3.14,3.25-9.68,4.12-11.49-1c0.59-4.75,3.24-8.88,5.54-12.94c6.17-10.35,12.22-20.82,16.94-31.93
		c5-12.53,10.41-24.93,14.03-37.95c6.16-20.82,9.35-42.4,10.81-64.03c0.43-3.8,0.72-7.7,2.16-11.26
		C464.5,2393.02,466.42,2392.19,468.25,2392.32z"/>
	<path fill="#FFFFFF" stroke="#FFFFFF" stroke-width="0.0938" d="M368.87,2579.89c2.9-2.88,6.92-4.94,11.11-4.23
		c7.42,1.02,15.1,1.12,22.14,3.99c-8.38,9.76-18.98,17.56-26.03,28.48c-9.27,12.11-17.47,25.09-23.94,38.94
		c-2.89,5.51-5.69,11.58-11,15.19c-4.46,2.94-10.02,2.08-15.07,2.33c-4.23,0.02-8.36,1.26-12.6,0.98c-2.05-1.91-1.1-5.2-0.92-7.64
		c1.49-5.06,5.09-9.1,7.49-13.71c4.63-8.77,11.33-16.15,16.66-24.46c5.18-8.01,11.42-15.24,16.98-22.96
		C358.13,2590.64,363.48,2585.2,368.87,2579.89z"/>
	<path fill="#FFFFFF" stroke="#FFFFFF" stroke-width="0.0938" d="M412.16,2585.14c2.42-2.42,6.04-1.63,9.05-1.1
		c7.76,1.63,15.47,3.65,22.8,6.76c-5.58,7.49-11.76,14.53-16.77,22.44c-7,9.32-12.53,19.59-18.01,29.85
		c-3.83,7.43-8.33,15.11-15.66,19.56c-7.68,4.17-16.62,1.97-24.87,3.37c-1.74,0.14-3.72,0.72-5.16-0.58
		c-1.95-1.48-1.26-4.33-0.88-6.34c1.56-3.95,4.44-7.17,6.45-10.86c8.35-16.18,18.52-31.34,28.79-46.35
		C402.15,2595.92,406.57,2589.93,412.16,2585.14z"/>
	<path fill="#FFFFFF" stroke="#FFFFFF" stroke-width="0.0938" d="M507.79,2592.7c10.32-3.19,21.36-2.63,31.96-1.42
		c9.44,0.61,18.96,1.68,27.99,4.67c9.04,3.06,18.75,4.27,27.12,9.14c-3.07,3.2-6.7,7.46-11.7,6.34
		c-12.73-2.13-25.11-6.68-38.15-6.82c-10.67-0.01-21.34-0.17-32-0.13c-6.16-0.06-12.41,0.78-18.44-0.85
		C498.05,2599.06,502.09,2594.4,507.79,2592.7z"/>
	<path fill="#FFFFFF" stroke="#FFFFFF" stroke-width="0.0938" d="M212.55,2679.5c5.3-5.73,10.05-12.4,17.38-15.69
		c-1.08,8.75-9.22,13.51-14.53,19.64c-8.36,9.99-17.2,19.65-24.58,30.43c-2.99,4.65-5.81,9.42-8.85,14.06
		c-6.41,10.43-10.31,22.1-14.51,33.54c-4.5,10.02-6.17,20.96-8.23,31.67c-2.33,11.75-1.74,23.77-1.81,35.69
		c0.52,12.42,3.35,24.67,7.4,36.41c2.94,7.97,6.93,15.5,10.73,23.09c4.65,8.03,9.92,15.97,17.19,21.88
		c2.18,1.84,4.29,3.76,6.37,5.74c-2.05,0.99-4.1,3.1-6.56,2.32c-6.46-2.09-11.06-7.46-15.45-12.33c-5.8-7.25-11.74-14.45-16.54-22.4
		c-9.95-17.64-16.79-37.46-17.01-57.85c-0.29-8.36,0.35-16.71,1.65-24.96c1.97-14.79,3.92-29.86,10.23-43.55
		c6.06-15.2,15.11-28.94,24.78-42.04C189.75,2702.18,201.89,2691.49,212.55,2679.5z"/>
	<path fill="#FFFFFF" stroke="#FFFFFF" stroke-width="0.0938" d="M812.9,2686.62c7.61,3.38,13.32,9.58,19.57,14.89
		c8.21,8.11,17.67,14.98,24.9,24.07c10,13.25,20.32,26.42,27.77,41.35c8.69,16.68,13.31,35.31,14.23,54.07
		c-0.6,12.67-2.44,25.27-4.91,37.71c-2.3,8.69-5.74,17.07-9.75,25.11c-7.6,15.45-20.53,28.63-36.66,35.05
		c-6.81,2.86-14.3,3.02-21.5,4.14c-5.22,0.8-10.53,0.47-15.73-0.28c9.38-3.33,19.43-3.42,29.07-5.5c11.61-3.41,22.05-10.29,30.39-19
		c4.05-4.33,6.37-9.89,8.8-15.2c4.5-10.32,8.91-21.12,8.6-32.58c1.24-11.3,1.03-22.69,0.68-34.03c-0.95-9-2.77-17.92-5.42-26.57
		c-6.45-18.12-15.83-35.11-27.4-50.45c-5.75-8.47-12.49-16.18-18.6-24.38C829.7,2704.87,818.43,2698.02,812.9,2686.62z"/>
	<path fill="#FFFFFF" stroke="#FFFFFF" stroke-width="0.0938" d="M304.68,2694.43c4.86-1.21,9.9-0.8,14.81-1.61
		c3.27-0.6,6.55,0.04,9.74,0.78c-1.88,9.09-6.53,17.37-7.79,26.63c-5.31,26.03-3.78,52.69-4.03,79.09
		c-5.71,0.9-11.43,1.74-17.2,2.21c-5.23,0.55-10.51,1.57-15.78,0.91c-3.13-4.45-3-10.29-3.82-15.47
		c-0.31-13.16-0.7-26.46,1.76-39.45c1.23-5.14,2.68-10.24,3.18-15.5c0.67-6.58,3.57-12.59,5.24-18.91
		c1.45-4.78,2.56-9.75,5.16-14.05C297.7,2695.92,301.47,2695.14,304.68,2694.43z"/>
	<path fill="#FFFFFF" stroke="#FFFFFF" stroke-width="0.0938" d="M336.45,2760.98c1.32-21.35,2.43-43.79,13.3-62.83
		c7.91,1.06,15.8,2.37,23.53,4.35c2.6,0.79,5.61,1.52,7.31,3.85c0.09,4.87-1.79,9.51-2.78,14.24c-3.06,11.72-3.53,23.87-5.01,35.85
		c-0.45,6.13-0.15,12.31-1.08,18.43c-0.88,6.43,1.13,12.72,1.6,19.09c0.15,2.41-2.39,3.82-4.46,4.24c-3.9,0.58-7.86,0.23-11.78,0.38
		c-6.02-0.05-12,1.59-18.02,0.78c-2.76-0.13-2.37-3.43-2.58-5.34c0.02-5.71-1.06-11.34-0.96-17.03
		C335.45,2771.62,336.54,2766.34,336.45,2760.98z"/>
	<path fill="#FFFFFF" stroke="#FFFFFF" stroke-width="0.0938" d="M690.78,2728.13c2.13-3.07,4.14-7.15,8.29-7.63
		c2.18-0.83,3.71,1.23,4.56,2.96c1.8,3.62,1.94,7.75,2.15,11.73C699.75,2735.94,694.47,2732.58,690.78,2728.13z"/>
	<path fill="#FFFFFF" stroke="#FFFFFF" stroke-width="0.0938" d="M725.95,2724.44c10.52,0.82,21.02,3.12,30.99,6.62
		c4.79,1.34,5.9,6.87,6.65,11.11c-1.04,2.14-3.32,1.15-5.11,0.86c-7.51-1.76-14.8-4.43-22.45-5.57c-3.37-0.68-7.55-1.08-9.19-4.6
		c-1.23-2.51-3.41-5.67-1.75-8.39L725.95,2724.44z"/>
	<path fill="#FFFFFF" stroke="#FFFFFF" stroke-width="0.0938" d="M704.39,2761.53c4.08,1.46,9.67,1.53,11.83,5.97
		c2.59,5.48,3.29,11.59,4.33,17.52c2.01,11.21,3.29,22.57,3.86,33.95c0.5,12.37-1.17,24.66-3.01,36.87
		c-1.52,7.94-2.91,16.02-6.3,23.44c-0.6-5.12,0.56-10.19,0.54-15.28c0.1-23.28,0.8-46.85-4.44-69.68
		c-1.93-10.65-5.98-20.72-8.63-31.18C703.2,2762.6,703.8,2762.06,704.39,2761.53z"/>
	<path fill="#FFFFFF" stroke="#FFFFFF" stroke-width="0.0938" d="M730.46,2767.26c7.46,2.02,15.06,3.5,22.62,5.17
		c3.16,0.77,6.49,1.39,9.28,3.2c1.79,3.44,0.97,7.53,0.97,11.28c-2.12,22.32-6.72,44.57-15.26,65.37
		c-4.72,12.39-12.6,23.33-22.03,32.58c1.99-8.14,5.6-15.81,7.07-24.07c1.15-6.55,2.5-13.11,2.46-19.77
		c-0.06-9.71,0.32-19.45-0.88-29.1c0.09-7.16-0.9-14.22-1.84-21.29C732.56,2782.77,730.06,2775.15,730.46,2767.26z"/>
	<path fill="#FFFFFF" stroke="#FFFFFF" stroke-width="0.0938" d="M813.53,2837.26c2.97-12.07,3.34-24.54,5.6-36.71
		c0.47,12.31,1.62,24.96-1.84,36.98c-2.12,7.58-3.68,15.46-7.61,22.4C808.86,2852.12,812.26,2844.81,813.53,2837.26z"/>
	<path fill="#B13101" d="M2033.98,128.81c11.84,1.54,23.89-0.18,35.34-3.27c6.53-1.62,11.97-5.99,15.87-11.37
		c5.66-6.72,8.71-15.11,10.43-23.63c3-10.48,1.25-21.57,3.87-32.12c1.08-4.35,1.95-8.76,2.35-13.24c-3.6,0.24-7.51-0.06-10.64,2.03
		c-4.44,2.79-7.81,6.87-11.45,10.55c-4.57,4.82-9.96,8.71-15.04,12.95c-8.3,7.17-18.76,11.05-27.63,17.4
		c-7.361,5.361-15.323,9.044-22.938,14.045c-8.234,5.408-15.751,11.835-22.929,18.56c-5.642,5.286-11.093,10.769-16.633,16.161
		c-2.953,2.873-5.925,5.727-8.966,8.507c-2.378,2.175-5.835,6.421-8.858,7.146c-1.929-4.801,10.082-15.23,12.914-18.86
		c8.187-10.493,17.836-19.831,28.506-27.779c10.598-7.894,22.363-13.534,33.774-19.941c5.52-3.1,12.67-5.67,14.31-12.56
		c-15.453,1.463-30.221,7.284-44.726,12.558c-15.116,5.496-30.036,11.511-44.952,17.523c-16.762,6.756-33.615,13.548-49.24,22.712
		c-14.669,8.603-23.831,24.416-32.462,38.717c-5.86,9.49-9.79,20-15.43,29.6c-3.58,6.03-7.01,12.2-11.42,17.68
		c0.96-8.74,5.66-16.33,9.04-24.26c4.45-8.6,7.09-17.96,11.03-26.78c3.16-7.58,7.55-15.01,7.23-23.51
		c-3.63,0.66-7.51,0.95-10.62,3.1c-3.75,2.52-6.98,5.71-10.55,8.45c-8.92,6.89-18.21,13.3-27.86,19.11
		c-4.56,2.65-8.65,5.98-12.83,9.16c-8.52,6.05-17.44,11.52-26.58,16.57c-6.98,5.26-15.36,9.13-20.19,16.74
		c-6.01,7.3-8.67,16.47-12.1,25.1c-3.42,8.79-6.01,17.94-10.59,26.23c-4.29,7.75-8.85,15.7-15.97,21.22
		c1.53-13.28,13.76-21.4,17.66-33.7c2.91-9.25,7.57-18.08,8.31-27.89c-10.75,2.09-18.59,10.2-27.73,15.54
		c-14.1,9.89-28.58,19.24-42.11,29.9c-7.79,6.2-16.66,11.19-23.18,18.85c-6.89,7.52-10.06,17.45-13.21,26.93
		c-5.96,17.32-7.29,35.8-13,53.19c-5.94,18.08-10.26,37.34-21.92,52.84c-5.15,6.46-8.9,14.21-15.71,19.19
		c0.49-3.34,1.18-6.82,3.5-9.41c6.07-7.05,9.39-15.85,12.93-24.32c3.69-9.99,8.1-19.74,10.84-30.06c2.88-10.35,4.8-20.94,6.55-31.53
		c1.35-9.12,4.71-17.75,7.05-26.64c2.34-8.68,6.27-16.81,8.81-25.43c-5.16,1.7-10.02,4.35-13.84,8.25
		c-6.53,6.52-13.94,12.04-20.53,18.48c-6.65,5.79-13.03,12.14-20.98,16.16c-5.8,2.91-11.32,6.59-17.69,8.16
		c-3.72,1.02-7.78,1.6-10.79,4.21c-3.98,3.34-7.39,7.31-11.45,10.56c-7.25,6.22-17.02,8.45-24.11,14.89
		c-9.54,8.52-15.19,20.35-20.11,31.93c-4.32,9.35-4.96,19.76-7.21,29.68c-2.58,13.6-5.64,27.13-7.11,40.92
		c-0.98,8.67-1.26,17.56-4.31,25.84c-3.33,9.06-6.76,18.1-9.56,27.35c-3.6,12.09-8.31,23.8-12.36,35.74
		c-5.34,15.32-12.58,30.27-23.78,42.19c1.71-9.7,7.9-17.61,11.73-26.48c8.13-19.64,14.94-39.8,20.64-60.27
		c2.8-10.48,7.7-20.41,8.81-31.29c0.84-8.16,1.91-16.3,2.6-24.47c1.47-14.68,5.07-29.17,4.9-43.99c-1.65,0.66-3.4,1.08-4.84,2.13
		c-7.464,5.443-13.221,13.211-19.648,19.77c-7.33,7.48-14.796,14.826-22.394,22.033c-10.025,9.508-20.279,18.776-30.75,27.79
		c-4.829,4.157-10.721,8.006-14.768,12.917c-3.616,4.388-8.518,7.428-12.109,11.87c-5.02,6.21-9.94,12.66-12.97,20.13
		c-4.15,8.41-6.95,17.64-12.93,25.04c0.08-8.07,2.72-15.79,3.45-23.78c-2.48,1.16-5.08,2.19-7.16,4.02
		c-6.87,6.13-12.59,13.43-19.58,19.43c-5.02,4.31-9.82,8.87-14.16,13.85c-6.22,7.14-14.38,12.25-20.56,19.42
		c-4.86,5.6-9.43,11.5-13.15,17.91c-3.44,5.75-3.43,12.62-4.04,19.09c-1.46,13.98,0.73,28.1-1.07,42.07
		c-3.12-1.33-8.21-1.9-8.19-6.29c0.04-9.38,1.21-18.74,1.71-28.11c0.23-7.75,2.66-15.25,2.56-23.01c-3.88,1.14-7.86,2.49-10.85,5.33
		c-3.332,3.165-4.513,7.008-6.958,10.627c-3.273,4.843-8.375,9.115-12.336,13.427c-8.232,8.959-16.464,17.919-24.695,26.878
		c-15.34,16.696-30.679,33.394-46.021,50.089c-13.34,14.516-27.278,29.006-36,46.92c-4.2,8.61-9.66,16.54-13.95,25.11
		c-2.19,4.37-2.51,9.35-4.24,13.88c-1.79,4.6-5.53,8.28-6.65,13.16c-0.8,3.47,1.16,6.67,2.63,9.67c3.1,5.67,3.45,12.26,5.43,18.33
		c-13.21,1.81-25.24,8.31-35.3,16.84c-3.68,3.04-4.57,8-7.27,11.74c-2.48,2.79-5.9,4.46-8.97,6.5c1.07,1.99,2.07,4.02,3.03,6.09
		c-0.478-1.031-14.068,3.533-15.477,3.97c-4.713,1.459-8.482,3.867-12.537,6.736c-8.389,5.936-16.059,12.837-23.149,20.265
		c-14.543,15.237-26.636,32.584-38.599,49.857c-5.72,8.259-11.48,16.59-15.422,25.831c-7.271,17.04-3.704,32.33,0.325,49.601
		c2.95,12.44,7.06,24.58,11.81,36.44c2.6,6.06-1.16,12-5.02,16.47c-1.35-2.56-2.72-5.1-3.79-7.78
		c-4.18-11.55-8.94-22.91-12.17-34.78c-2.17-8.19-2.57-16.68-3.19-25.08c-0.46-6.69,0.73-13.3,1.59-19.9
		c0.4-2.67-0.57-5.24-1.31-7.75c-5.64,4.85-8.49,11.85-12.77,17.76c-4.84,7.79-11.51,14.36-15.43,22.72
		c-4.27,8.95-10.75,16.53-15.99,24.89c-5.57,8.77-11.56,17.27-16.79,26.25c-2.91,5.02-6.08,9.87-9.22,14.74
		c-6.08,9.42-10.92,19.58-15.04,29.99c-2.67,7.17-5.11,14.61-5.3,22.34c-0.34,3.59,0.1,7.89-2.77,10.62
		c-4.4,4.3-9.91,7.34-13.94,12.06c-5.48,6.419-11.452,12.537-15.988,19.721c-4.709,7.456-8.268,15.575-11.546,23.74
		c-3.718,9.26-7.146,18.672-11.726,27.556c-2.069,4.014-4.415,9.433-7.801,12.509c-3.315,3.011-8.056,5.016-11.699,7.705
		c-7.77,5.45-14.53,12.14-21.77,18.24c-6.52,5.51-12.21,11.99-16.73,19.24c-3.62,5.92-8.91,10.54-12.71,16.33
		c-8.1,12.49-15.76,25.32-22.04,38.83c-3.63,7.86-2.1,17.11-6.26,24.78c-2.72,5.2-6,10.09-8.72,15.3
		c-7.6,15.58-18.43,29.23-26.61,44.48c-4.42,7.72-6.22,16.57-7.88,25.22c-1.53,9.5-2.9,19.05-3.54,28.66
		c-0.41,6,0.96,11.92,0.91,17.91c-0.01,5.88-0.41,11.83,0.82,17.64c0.37,3.01,1.7,6.58-0.55,9.21c-2.24,3.45-6.31,4.67-10.06,5.68
		c0.12-8.47,1.74-16.78,3.58-25.01c1.92-8.21,1.43-16.7,1.07-25.04c-0.58-0.04-1.74-0.12-2.32-0.15c-1.77,3.18-3.51,6.38-5.23,9.6
		c-3.15,6.07-7.56,11.44-10.03,17.87c-3.51,9.01-7.34,17.9-11.51,26.64c-4.15,8.51-7.51,17.41-12.39,25.56
		c-4.58,7.58-7.52,15.98-10.48,24.28c-2.28,6.34-2.18,13.14-2.23,19.79c-0.27,7.79,3.14,15.07,3.44,22.82
		c3.03,17.35,9,34.01,15.09,50.49c-6.58-3.93-9.59-11.2-14.11-17.02c-6.6-8.35-8.19-19.17-10.73-29.18
		c-1.8-6.53-0.05-14.1-4.46-19.74c-5.37,7.24-8.02,15.95-12.51,23.69c-5.12,8.78-6.77,18.95-9.51,28.6
		c-2.03,10.19-7.85,19.62-7,30.31c-0.1,11.52,6.27,21.52,9.21,32.34c-0.91-0.55-1.8-1.08-2.68-1.61
		c-6.79-3.67-7.69-12.14-11.26-18.29c-3.08,4.64-6.12,9.46-7.41,14.95c-1.41,5.29-0.25,10.81-0.98,16.18
		c-0.7,4.31-3.1,8.06-4.85,12.01c-2.21,4.72-3.13,9.92-5.36,14.64c-3.48,7.3-6.46,14.83-9.89,22.16
		c-4.04,8.72-4.88,18.74-2.66,28.07c2.97,12.43,9.46,23.56,14.84,35.04c2.64,5.8,6.8,10.77,9.41,16.6c1.09,2.03-0.09,4.24-0.62,6.27
		c-3.35-2.88-6.4-6.15-8.57-10c-5.49-9.45-11.29-18.7-16.85-28.1c-2.75-4.51-4.82-9.7-9.05-13.07c-5.3-3.57-12.15-3.16-18.04-1.52
		c2.76,6.17,7.29,11.37,9.74,17.7c2.74,6.83,5.49,13.74,6.73,21.04c1.81,10.43,1.55,21.07,1.32,31.61
		c-0.204,9.363-1.276,18.339-0.401,27.769c0.926,9.984,2.884,19.857,5.504,29.529c3.481,12.848,8.113,25.345,13.053,37.694
		c4.502,11.255,8.011,22.682,14.458,33.05c4.274,6.874,9.377,13.17,14.134,19.705c4.698,6.454,7.81,14.097,12.552,20.343
		c3.41,4.34,5.39,9.59,6.05,15.06c-3.91-2.73-7.31-6.06-10.57-9.51c-5.2-5.48-12.44-8.17-18.4-12.63
		c-4.631-3.466-9.577-7.306-13.901-11.426c-4.596-4.378-8.182-9.8-13.269-13.645c-1.34,2.11-3.77,4.15-3.19,6.95
		c1.13,6.11,4.75,11.37,7.94,16.6c3.929,6.38,12.048,11.123,17.761,15.884c9.093,7.577,19.017,14.562,25.689,24.456
		c1.19,3.85,0.4,8.23,2.44,11.88c1.61,2.91,2.97,5.97,3.94,9.18c-11.1-5.62-21.91-11.91-31.83-19.42
		c-6.98-5.44-8.39-14.6-12.7-21.79c-2.97-0.71-3.44,3.18-3.47,5.32c0.04,8.25,0.49,17.26,5.42,24.23
		c5.11,5.82,12.12,9.46,18.61,13.51c4.7,2.89,7.98,7.62,10.1,12.64c2,4.82,1.39,10.25-0.06,15.15c-5.7,19.05-10.5,38.48-18.8,56.63
		c15.81,2.22,31.62,4.88,47.03,9.13c4.93,1.23,10.05,1.38,15.05,2.27c-2.08-1.12-4.16-2.22-6.23-3.32
		c1.92-10.38,5.36-20.36,8.79-30.3c5.76-18.11,10.88-36.45,17.79-54.17c1.5-3.9,1.97-8.2,4.05-11.84c3.7-4.5,10.21-3.94,15.22-2.38
		c5.603,1.281,10.204,7.243,14.761,10.531c5.198,3.751,10.296,7.796,14.909,12.255c4.068,3.932,7.518,8.442,12.26,11.653
		c14.195,9.603,34.988,11.501,51.12,6.071c4.039-1.36,7.306-5.226,8.977-9.025c-10.177,2.043-20.604,4.095-30.87,2.553
		c-9.44-1.418-18.228-5.833-25.952-11.442c-6.056-4.397-11.522-9.53-16.838-14.78c-2.264-2.236-3.761-3.503-6.58-4.725
		c-1.534-0.665-8.686-2.447-9.227-3.982c-1.15-3.26,1.67-7.14,5.08-7.22c2.84-0.2,5.7,0.31,8.39,1.25
		c5.62,1.92,9.15,7.65,15.19,8.69c14.28,2.74,28.61,6.8,43.29,5.93c8.9-0.96,17.7-2.75,26.55-4.15c10.67-1.58,21.81-1.08,32.03-4.99
		c6.4-2.47,9.95-8.67,13.93-13.83c5.31-6.87,9-14.82,14.46-21.57c3.71-4.97,8.01-9.6,10.83-15.16c1.61-2.8,0.85-6.49-1.48-8.6
		c-3.58-1.45-7.54-1.23-11.3-1.52c2.03-5.37,3.72-11.45,8.78-14.81c4.01-2.72,7.31-6.46,11.59-8.73c12.7-2.35,25.8-0.18,38.46-2.89
		c17.22-2.4,34.49-8.14,47.89-19.55c7.59-6.22,10.56-15.92,14.41-24.56c3.03-8.46,7.2-16.47,9.88-25.05
		c2.29-7.45,6.25-14.22,9.88-21.07c3.84-7.42,9.98-13.6,12.25-21.81c-3.96,0.48-8.1,1.14-11.34,3.67
		c-5.32,3.94-10.28,8.36-15.62,12.3c-6.64,5.41-14.45,9.33-20.29,15.7c-2.67,2.98-6.09,5.14-9.85,6.47
		c2.31-9.64,11.65-14.49,17.44-21.78c4.99-6.32,11.38-11.37,16.05-17.96c5.06-7.22,14.12-9.31,21.08-14.09
		c10.57-6.79,19.41-15.88,27.49-25.41c10.13-11.58,12.7-27.35,20.71-40.18c5.21-9.24,11.29-18.2,14.23-28.5
		c2.17-7.34,3.16-15.01,6.07-22.13c2.82-6.7,4.42-13.84,7.53-20.42c3.39-7.38,6.05-15.08,9.82-22.28c2.5-5.17,8.62-7.06,13.94-7.43
		c4.96,0.46,9.22,3.6,14.17,4.23c4.28,0.53,8.7,0.63,12.95-0.25c5.46-1.6,9.27-6.5,14.86-7.9c5.04-1.36,10.16-3.16,13.85-7.06
		c10.79-10.65,19.57-23.09,29.42-34.57c6.99-8.12,12.2-17.62,19.58-25.42c5.04-5.28,10-10.64,15.28-15.69
		c4.9-4.47,11.28-6.99,15.79-11.94c-2.85-0.25-5.82-0.31-8.43,1.05c-8.27,3.75-17.08,6.4-24.76,11.36
		c-8.97,5.72-18.69,10.33-29.01,13.02c6.09-5.61,13.83-8.75,20.78-13.07c9.04-5.46,18.34-10.51,27.84-15.12
		c6.52-3.1,12.39-7.51,17.05-13.03c5.75-6.03,9.6-13.48,14.36-20.25c9.82,3.91,19.47,8.24,29.23,12.32
		c13.52,5.43,27.93,9.77,42.66,8.83c8.92-0.43,17.06-4.49,25.72-6.19c9.02-1.69,15.9-8.35,21.85-14.89
		c4.9-6.02,10.31-11.96,12.72-19.5c-4.8,2-9.05,5.01-13.22,8.06c-3.671,2.636-7.905,4.308-12.215,5.581
		c-4.281,1.265-8.793,2.99-13.196,3.6c-4.418,0.612-8.893,0.88-13.351,0.866c-8.929-0.028-17.851-1.257-26.46-3.623
		c-5.371-1.476-10.621-3.395-15.673-5.741c-2.569-1.193-5.086-2.497-7.541-3.908c-2.4-1.38-3.295-3.088-4.864-5.344
		c9.54,0.28,18.89,2.68,28.46,2.71c4.843-0.121,9.682-0.379,14.515-0.714c3.147-0.218,6.262-0.171,9.358-0.718
		c3.578-0.632,7.156-1.264,10.734-1.896c5.619-1.017,11.246-1.987,16.869-2.98c2.761-0.488,4.807-0.999,7.283-2.266
		c2.545-1.302,5.043-2.697,7.64-3.895c7.75-3.58,14.56-8.76,21.51-13.66c7.55-5.72,13.15-13.5,20-19.94
		c5.04-4.41,12.06-1.4,17.99-1.57c12.01,0.05,24.04,0.27,36.05-0.13c10.02-1.23,20.15-0.43,30.18-1.54
		c12.95-1.14,26.03-0.96,38.81-3.59c21.18-2.46,41.18-10.27,60.76-18.33c7.42-3.22,14.21-7.66,21.16-11.76
		c6.4-3.79,12.29-8.37,17.79-13.36c5.59-5.09,11.72-9.78,15.98-16.13c4.83-7.3,10.07-14.38,13.87-22.3
		c4.39-9.35,14.74-13.05,21.56-20.18c9.34-9.7,18.55-19.58,26.86-30.19c6.76-8.33,13.94-16.39,19.55-25.57
		c4.5-7.11,7.92-14.82,11.73-22.3c2.73-5.41,4.81-11.13,6.21-17.02c8.758-36.844,11.222-80.635-14.048-111.803
		c-8.771-10.818-20.227-19.43-33.029-24.906c-15.371-6.574-30.833-4.417-46.863-1.541c-0.44,1.85-0.87,3.71-1.4,5.55
		c8.78,2.07,17.82,2.41,26.69,3.87c22.258,3.465,42.182,19.47,52.923,38.949c8.002,14.511,11.262,31.552,9.362,48.001
		c-1.941,16.804-3.45,33.229-9.875,49.26c-3,7.14-6.37,14.12-9.79,21.07c-7.76,15.95-19.74,29.31-31.79,42.12
		c-6.02,5.57-11.1,12.79-19.22,15.42c0.815-0.264-3.024-29.844-3.506-33.203c-1.405-9.779-4.358-19.323-8.61-28.236
		c-11.063-23.188-31.272-43.42-56.763-49.492c-5.881-1.401-12.026-2.056-17.984-1.03c-5.958,1.025-11.736,3.847-15.589,8.506
		c15.205,0.311,30.235,0.752,44.513,6.313c12.941,5.04,22.702,15.567,28.504,28.035c9.601,20.633,11.546,45.333,4.827,66.977
		c-2.17,6.99-4.34,14.19-8.75,20.14c-3.23,4.46-8.64,6.31-13.42,8.57c-23.341,11.036-46.644,19.479-72.151,23.72
		c-26.769,4.451-53.836,7.11-80.959,7.958c-9.82,0.307-19.648,0.377-29.471,0.208c-2.923-0.05-9.81,1.088-11.62-1.355
		c-1.992-2.689-1.299-9.801-2.559-13.202c-1.57-4.2-5.69-6.53-9.07-9.1c7.23-2.43,14.85-3.92,21.6-7.64c4-2.21,7.87-4.68,11.66-7.24
		c6.95-4.68,12.21-11.55,15.82-19.03c2.58-5.4,2.4-11.48,2.6-17.31c-0.04-3.99,2.96-6.95,5.48-9.67
		c7.37-7.49,12.47-16.88,16.52-26.5c2.51-5.91,5.06-12.01,5.18-18.52c0.38-7.38-1.5-14.95-5.64-21.1c-1.38-2.39-4.38-2.43-6.73-3.07
		c-2.32,10.64-4.38,21.37-7.75,31.75c-2.21,5.97-6.39,10.91-9.61,16.34c-3.89,6.6-9.87,11.5-15.38,16.69
		c-6.77,6.2-15.4,10.11-24.34,11.95c-8.34,1.68-16.67,4.38-25.27,3.72c-11.52-0.44-23.46-3.02-32.84-10.04
		c3.49-3.18,7.28-6.08,10.35-9.69c3.75-4.71,5.23-10.69,8.03-15.94c3.66-7.78,10.27-15.14,9.08-24.32
		c-0.22-4.01-5.21-2.54-7.79-2.26c-11.76,2.47-23.88-1.07-34.25-6.59c-15.7-9.53-27.97-23.5-42.78-34.22
		c-6.55-5.71-13.46-11.1-19.11-17.73c6.86,0.96,12.54,5.04,18.54,8.14c20.74,11.01,41.07,23.03,63.08,31.36
		c6.59,3.22,13.45,5.8,20.62,7.38c11.77,3.41,23.74,6.67,36.06,7.22c9.48,0.51,18.98-1.02,28.01-3.86c4.89-1.61,9.05-4.72,13.4-7.37
		c13.11-7.52,21.25-20.87,28.39-33.72c4.19-6.81,4.99-15.46,2.77-23.06c-1.39-4.75-5.32-7.94-9.32-10.46
		c-0.54,0.53-1.61,1.59-2.14,2.12c2.19,13.21-0.07,27.06-5.93,39.06c-3.12,6.75-9.05,11.56-14.47,16.41
		c-4.55,4.04-10.97,4.13-16.71,4.03c-8.64-0.12-16.65-3.76-24.33-7.33c-8.92-4.2-16.59-10.6-23.24-17.79
		c-4.86-5.59-9.41-11.71-11.42-18.95c6.75-1.93,13.85-3.17,20.01-6.72c5.92-3.52,11.2-8.35,14.45-14.49
		c9.55-17.73,17.14-36.46,27.08-53.99c2.6-5.44,6.71-11.58,3.83-17.72c-7.64,4.87-15.03,10.5-24.06,12.52
		c-12.36,4.66-25.74,1.98-38-1.54c-10.34-2.92-19.54-8.7-28.44-14.56c-7.05-5.41-14.74-10-21.16-16.21
		c0.83-0.57,1.65-1.16,2.47-1.77c12.51,4.86,25.25,9.16,38.24,12.55c9.5,2.25,18.99,5.21,28.87,5c11.32,0.59,22.85-0.8,33.39-5.13
		c6-2.51,10.67-7.34,14.42-12.54c2.47-3.37,3.67-7.49,6.14-10.85c3.52-1.75,7.72-1.19,11.55-1.79c5.94-0.48,10.83-4.17,16.13-6.48
		c4.52-2.06,9.49-2.92,13.92-5.21c4.58-2.52,8.27-6.33,11.79-10.14c4.74-5.37,9.37-11.58,9.82-19c0.45-8.1-0.92-16.2-2.75-24.06
		c-3.4,1.31-7.39,2.3-9.36,5.69c-1.84,3.47-2,7.52-2.74,11.32c-1.04,7.16-2.97,14.55-8.07,19.98c-4.28,5.61-11.1,8.8-18.11,8.9
		c-11.27,0.11-22.69-3.28-31.68-10.17c-6.13-4.79-12.7-9.61-16.13-16.83c5.96-0.25,11.93-0.01,17.9,0.06
		c8.81,0.04,17.82-1.87,25.28-6.72c7.99-4.94,12.98-13.15,18.19-20.69c4.47-7.47,9.4-14.85,11.85-23.29
		c0.9-2.61,1.68-5.41,3.61-7.47c5.68-0.21,11.12,1.77,16.67,2.73c6.88,1.2,13.62,3.16,20.55,4.12
		c21.902,1.868,43.809,2.845,65.495-1.491c26.805-5.36,53.426-17.228,73.615-35.919c5.92-5.24,10.29-11.88,14.66-18.38
		c6.06-8.59,10.41-18.2,15.71-27.25c3.44-6.56,7.89-12.62,10.48-19.6c1.31-2.93,0.23-6.09-0.33-9.05c-3.3,1.84-6.51,4.09-8.27,7.55
		c-4.54,8.18-10.76,15.22-16.02,22.92c-12.605,18.587-35.171,30.652-56.118,36.967c-22.484,6.778-46.657,8.048-69.683,3.346
		c-4.511-0.921-8.914-1.324-13.449-2.273c-11.84-2.48-23.52-5.71-34.84-10c-6.59-2.82-13.68-4.77-19.41-9.26
		c3.42-0.14,6.87-0.09,10.3-0.35c5.99-0.53,11.669-3.41,15.819-7.739c3.798-3.963,6.109-5.454,11.623-5.077
		c5.82,0.398,11.65,0.667,17.483,0.794c11.922,0.258,23.862-0.079,35.74-1.154c23.621-2.138,47.063-7.232,69.019-16.312
		c7.742-3.202,15.413-6.973,21.521-12.707c6.108-5.734,10.532-13.713,10.375-22.09c-0.04-2.143-0.598-4.605-2.515-5.563
		c-2.314-1.156-5.151,0.735-6.206,3.097c-1.054,2.362-0.955,5.053-1.394,7.602c-1.141,6.623-5.978,12.144-11.687,15.691
		c-17.538,10.897-39.076,13.351-59.318,12.693c-10.346-0.336-20.656-1.531-30.858-3.259c-3.734-0.632-33.087-6.199-33.484-5.116
		c1.69-4.61,3.86-9.02,5.87-13.49c2.98-8.41,6.92-16.45,10.61-24.55c5.58-1.57,11.54-0.47,17.25-1.47
		c12.98-1.11,24.86-6.74,36.98-11.02c9.38-3.51,17.9-9.08,25.22-15.88c4.55-4.25,9.34-8.74,11.5-14.74
		c-0.27-0.22-0.81-0.66-1.08-0.88c-3.2,1.3-6.2,3.04-9.15,4.81c-0.87-1.66-1.73-3.3-2.57-4.92c-9.36,4.42-13.62,14.9-22.7,19.72
		c-9.71,5.2-20.77,8.15-31.81,7.79c-11.14-0.32-22.43,2.65-33.43-0.21c5.54-4.29,12.61-5.55,18.55-9.1
		c8.21-4.53,14.35-11.78,21.03-18.18c2.03-2.14,4.99-2.79,7.83-3.02c14.64-1.38,29.34-2.05,44.03-2.79c6.41-0.54,12.69-2.04,19-3.25
		c19.05-3.83,37.39-12.08,52.25-24.69c5.42-4.599,11.225-8.845,15.129-14.916c3.167-4.925,0.69-5.762-3.245-9.324
		c-6.702-6.702-14.004-11.711-21.974-16.73c-3.295-2.075-5.116-3.293-0.726-4.727c3.436-1.123,7.185-1.614,10.694-2.515
		c13.489-3.466,27.069-8.35,37.631-17.748c14.878-13.238,22.586-34.887,22.707-54.472c0.011-1.782-0.05-3.62-0.784-5.243
		s-2.301-2.993-4.082-2.972c-1.86,0.021-3.428,1.538-4.134,3.259c-0.706,1.721-0.74,3.63-0.839,5.487
		c-0.644,11.965-4.512,23.742-11.088,33.758c-5.023,7.65-11.785,14.395-20.177,18.044c-8.227,3.577-17.537,3.984-26.433,2.834
		c-33.768-4.365-54.674-29.783-73.217-55.865c-1.27-2.32-3.6-5.01-2.34-7.77c9.14,0.09,17.66,4.35,26.77,4.81
		c8.02-0.12,15.25-4.81,20.49-10.59c5.23-5.84,10.04-12.04,14.67-18.36c4.57-6.16,7.85-13.23,13.05-18.92
		c5.38-6,11.68-11.49,14.99-19.02c1.89-3.93,1.13-8.4,0.93-12.58c0.068,1.411-10.137,6.759-11.563,7.635
		c-4.371,2.685-8.844,5.208-13.424,7.521c-8.345,4.214-16.283,6.44-25.733,7.089c-11.622,0.798-23.403-0.742-34.427-4.508
		c-11.163-3.814-21.235-10.119-32.263-14.356c-7.52-2.99-15.38-5.57-21.85-10.61c0.755,0.588,5.26,0.076,6.446,0.232
		c1.918,0.252,3.974,0.482,5.851,0.837c4.821,0.912,9.562,2.442,14.372,3.463c9.764,2.071,19.656,3.54,29.6,4.403
		c22.354,1.939,43.562,0.002,65.401-3.894c9-2.27,18.41-4.41,26.22-9.66c17.128-13.67,20.279-37.099,34.879-52.556
		c3.891-4.119,7.519-9.529,6.249-15.051c-14.13,10.364-31.096,16.679-48.499,18.735c-17.878,2.113-36.243-0.316-53.025-6.803
		c-4.251-1.644-8.402-3.548-12.418-5.705c-1.914-1.028-9.346-4.253-4.98-5.957c2.999-1.17,11.099,2.208,14.234,2.928
		c4.843,1.113,9.693,2.219,14.625,2.871c20.607,2.723,44.704,3.937,64.684-2.723c4.56-1.54,8.74-4.28,13.59-4.94
		c5.07-0.68,10.33-0.35,15.27-1.95c5.7-1.87,10.26-6.01,15.72-8.42c5.91-2.73,12.53-3.18,18.65-5.32
		c6.06-2.09,11.96-5.06,16.64-9.52c7.81-7.56,15.19-15.62,21.46-24.51c3.24-5.6,5.83-11.77,6.8-18.19c0.73-3.88-3.34-5.85-5.73-8.04
		c-5.35,6.33-7.9,14.57-13.83,20.44c-5.24,5.37-11.76,9.38-18.6,12.36c-6.42,2.83-13.59,2.18-20.4,1.89
		c-16.45-1.46-32.66-5.52-47.89-11.88c-7.64-3.05-15.24-6.3-22.11-10.86c-8.93-5.89-18.46-10.76-27.43-16.57
		c-17.43-11.08-36.93-18.77-57.09-23.08c-10.32-2.34-20.91-0.99-31.35-1.85c2.19-1.15,4.34-2.57,6.86-2.94
		c9.63-1.9,19.31,0.7,28.89,1.73c12.62,1.47,24.28,6.69,36.22,10.68c7.78,2.82,15.75,5.19,23.3,8.66c7.27,3.32,14.94,5.6,22.33,8.64
		c18.74,7.44,38.62,13.15,58.95,12.73c16.33-0.45,33.04-7.6,42.84-21c5.07-6.54,11.32-12.09,16.11-18.87
		c3.79-4.88,6.05-10.67,8.97-16.06c2.91-5.41,9.47-6.57,14.28-9.67c7.64-4.75,15.26-10.02,20.7-17.32
		c5.17-6.73,9.35-14.35,11.42-22.62c0.45-2.53,1.16-5.79-1.13-7.66c-4.48,4.94-6.82,11.37-11.19,16.4
		c-5.58,7.22-13.27,12.34-21,16.96c-5.32,3.1-11.46,4.08-17.31,5.66c-4.67,1.25-9.42,2.15-14.15,3.07c-1.27-1.88-2.47-3.81-3.7-5.7
		c-2.94,2.96-5.7,6.91-10.13,7.5c-5.29,0.51-10.64,0.31-15.89-0.32c-8.68-1.55-17.59-2.96-25.5-7.06
		c7.48-2.67,15.31-4.53,22.23-8.57c8.87-5.01,18.51-10.01,23.97-19.01c3.98-6.61,10.42-11.12,16.76-15.25
		c3.16-2.18,7.13-1.9,10.78-2.05c5.77-0.12,11.54-0.73,17.15-2.15c7.57-1.93,15.54-2.61,22.68-6.04
		c9.59-4.46,18.5-10.75,25.16-19.03c5.54-6.9,11.89-13.5,14.89-22.01c1.9-4.38,2.48-9.57,5.76-13.23
		c4.61-2.88,10.21-3.55,15.05-5.99c6.93-2.98,11.2-9.49,16.64-14.4c8.88-8.17,15.35-18.63,24.84-26.19
		c6.72-6.75,13.51-14.53,15.27-24.19c-10.12,2.8-19.11,8.69-29.41,10.95c-17.038,3.511-34.559,4.169-51.885,2.993
		c-8.27-0.561-16.524-1.554-24.721-2.752c-4.035-0.59-8.085-1.222-12.096-1.958c-2.183-0.401-10.117-3.734-11.819-3.042
		c8.88-3.61,18.32-0.23,27.5-0.87c26.632-1.765,53.871,0.046,80.093-5.862c11.902-2.681,24.599-7.498,33.67-15.947
		c8.311-7.741,18.43-16.447,21.327-27.931c-4.54,1.01-8.88,2.66-13.21,4.28c-4.43,1.71-9.22,0.63-13.6-0.62
		c10.86-6.98,23.62-11.65,32.12-21.8c2.86-3.6,0.88-8.42-1.25-11.85c-6.02,4.61-11.82,9.7-18.77,12.89
		c-8.18,4.05-17.42,4.76-26.21,6.74c-5.97,1.35-12.1,1.63-18.19,1.51c-11.08,0.06-22.36-1.33-32.58-5.8
		c11.41-4.15,23.74-2.55,35.6-3.72c7.6-0.93,15.14-2.29,22.72-3.45c8.78-1.33,17.28-3.97,25.87-6.14
		c6.88-1.71,13.06-5.31,19.06-8.96c8.13-5.01,14.77-12.23,19.48-20.5c4.51-7.81,11.67-14.8,11.84-24.37
		c-7.2,3.34-13.52,8.3-20.9,11.27c-8.34,4.19-17.79,5.89-27.07,5.18c-9.52-0.85-19.25-0.47-28.49-3.24c1.67-1.3,3.17-3.36,5.5-3.44
		C2028.66,128.31,2031.32,128.58,2033.98,128.81z M1431.982,1513.722c12.646-1.431,25.292-2.863,37.938-4.294
		c21.137-2.392,42.703-3.5,63.7-6.698c14.781-2.251,29.401-6.545,43.921-10.057c-17.745,13.212-39.221,20.719-61.003,24.59
		c-17.806,3.165-35.919,4.01-53.971,4.315c-19.395,0.328-39.761,3.456-58.023-4.751
		C1413.69,1515.792,1422.836,1514.757,1431.982,1513.722z M1538.77,430.73c2.22-13.28,3.72-26.72,7.24-39.75
		c2.8-11.04,7.3-22.31,16.12-29.93c-1.89,7.16-5.26,13.8-7.3,20.9c-4.98,17.62-8.03,35.7-12.37,53.47
		c-1.75,7.72-1.94,16.1-6.56,22.86C1535.7,449.01,1537.47,439.87,1538.77,430.73z M1506.13,489.12c1.52-11.17,3.29-22.3,5.25-33.4
		c1.27-11.56,3.68-22.95,5.93-34.35c1.97-8.3,3.21-17.51,9.68-23.73c-0.93,11.62-3.84,22.95-5.68,34.44
		c-2.12,13.3-4.11,26.64-6.27,39.94c-1.64,9.09-4.6,17.87-7.36,26.66c-1.27,4.2-3.3,8.11-5.8,11.7
		C1502.1,503.06,1505.32,496.34,1506.13,489.12z M1401.99,554.91c2.78-8.71,3.47-17.94,6.48-26.59c3.36-9.72,5.41-20.07,11.06-28.83
		c1.71-2.99,4.6-4.94,7.43-6.75c-1.27,7.1-4.87,13.44-7.02,20.26c-2.21,6.99-4.84,13.82-7.34,20.71c-5.01,13.12-7,27.14-11.63,40.38
		c-2.57,7.15-4.88,14.44-8.55,21.13C1394.31,581.53,1397.6,568.01,1401.99,554.91z M1363.48,611.57c1.83-9.42,3.12-18.96,5.89-28.17
		c3.33-14.19,7.53-28.14,11.83-42.06c2.23-8.47,5.53-17.16,12.71-22.68c-0.4,6.38-1.39,12.78-3.73,18.76
		c-1.72,4.28-3.08,8.7-3.76,13.28c-1.42,9.66-6.45,18.25-8.87,27.64c-3.16,12.41-6.88,24.66-10.14,37.05
		c-1.09,4.92-2.29,9.87-4.63,14.38C1360.46,623.82,1362.42,617.55,1363.48,611.57z M1301.96,878.58c11-0.07,22.02-0.03,33.02-0.36
		c11.36-0.39,22.6,1.45,33.85,2.69c11.75,1.65,23.12,5.21,34.47,8.58c4.83,1.4,9.64,2.93,14.31,4.83c6.82,2.86,14.18,4.9,19.9,9.83
		c-11.06-0.13-22.17-0.84-32.99-3.26c-13.54-1.99-26.74-5.72-40.25-7.88c-17.12-2.69-34.25-5.6-51.58-6.46
		c-8.74-0.22-17.59-0.66-26.21,1.1c-4.38,0.94-8.87,1.11-13.32,0.84C1281.25,882,1291.81,879.44,1301.96,878.58z M1279.23,682.62
		c1.99,0.62,4.32,0.77,5.99,2.17c2.02,2.94,2.04,6.72,2.28,10.16c0.03,4.98,0.27,10.5-2.73,14.78c-1.44,2.19-4.14,2.79-6.49,3.46
		C1277.29,703.03,1277.23,692.66,1279.23,682.62z M1265.32,782.18c3.86-13.33,8.43-26.52,10.73-40.24
		c0.72-4.33,0.91-8.75,1.98-13.01c0.48-2.84,3.22-4.31,5.18-6.07c4.05,5.8,2.22,13.27,0.4,19.54c-3.26,9.36-5.23,19.1-8.65,28.41
		c-3.29,8.82-6.17,17.81-9.95,26.45c-3.1,6.93-5.11,14.45-9.93,20.48c-1.02-0.41-2.01-0.84-2.98-1.29
		C1254.97,804.45,1261.93,794,1265.32,782.18z M1250.06,823.95c5.67-1.85,11.74-1.71,17.4,0.14c-0.69,1.73-1.32,3.49-2.19,5.14
		c-5.16,1.79-10.75,1.4-16.1,2.11c-7.73,0.46-15.01,3.34-22.65,4.32C1232.58,828.93,1241.71,826.53,1250.06,823.95z
		 M1190.18,1067.76c17.82,2.49,34.44,10.18,49.65,19.52c5.63,3.56,10.57,8.1,16.17,11.72c4.02,2.62,7.85,5.58,11.13,9.12
		c-7.84-1.45-13.65-7.17-20.43-10.85c-8.8-5.05-18.01-9.3-27.09-13.78c-10.15-4.09-20.76-6.96-31.33-9.68
		c-9.01-2.42-18.38-1.32-27.57-1.35C1169.16,1066.09,1180.23,1066.71,1190.18,1067.76z M1126.16,979.42
		c0.64-9.21,1.68-18.43,1.05-27.66c-0.52-5.63,0.08-11.26-0.22-16.89c-0.85-12.4,1.27-24.71,2.58-36.99
		c0.86-6.74,1.17-14.16,5.48-19.77c3.15,1.65,4.37,5.44,4.63,8.78c0.11,2.46-2.41,3.98-2.86,6.24c0.38,2.46,1.41,4.75,1.99,7.18
		c1.23,4.49-0.24,9.09-0.3,13.64c-0.48,7.29,1.15,14.54,0.48,21.83c-0.71,7.3,0.1,14.68-1.09,21.95
		c-1.64,12.27-4.63,24.28-7.07,36.4c-0.7,3.48-2.25,6.7-3.94,9.79C1124.03,996.03,1125.5,987.55,1126.16,979.42z M1085.87,1197.78
		c2.78-1.7,5.81-3.69,9.24-3c7.31,1.16,14.7,0.29,22.05,0.69c14.23,0.92,28.5,2.08,42.52,4.84c12.92,3.2,27.07,4.58,37.97,12.96
		c-7.3,0.9-14.08-2.37-21.09-3.7c-14.34-2.9-28.93-4.4-43.52-5.22c-10.03-0.12-20.07-0.14-30.09,0.09
		c-7.42,0.42-14.72,2.02-21.96,3.59c-6.82,1.29-12.67,6.2-19.86,5.54C1067.61,1205.82,1077.61,1203.02,1085.87,1197.78z
		 M1089.95,1240.77c4.33-0.52,8.65,0.39,12.87,1.31c-5.94,2.77-12.56,3.55-18.48,6.36c-5.37,2.56-11.57,1.71-17.08,3.81
		c-9.39,3.41-18.6,8.11-28.77,8.57c3.3-7.17,11.84-8.27,18.38-10.96C1067.48,1245.53,1078.51,1242.03,1089.95,1240.77z
		 M1033.82,949.75c1.57-6.35,1.4-13.55,6.17-18.61c2.27,6.52,0.67,13.3,0.32,19.96c-0.38,3.15,1.68,5.68,3.37,8.1
		c-1.22,2.87-2.81,5.68-3.07,8.86c-0.9,20.96,2.35,41.82,2.12,62.79c1,12.84,0.84,25.75,2.42,38.56c0.63,9.98,0.57,20.02,0.02,30.01
		c-0.04,3.8-1.32,7.37-2.49,10.94c-0.99-4.67-2.25-9.31-2.67-14.07c-0.32-2.43,1.2-4.55,2.08-6.67c-1.45-0.22-2.9-0.43-4.33-0.61
		c-0.25-7.08,1.4-14.06,1.01-21.13c-0.51-10.91,0.43-21.87-1.03-32.73c-0.83-8.35-3.07-16.54-3.23-24.96
		c-0.43-7.08-1.07-14.14-1.17-21.23C1032.09,975.97,1030.26,962.55,1033.82,949.75z M993.92,1107.86
		c3.98,10.94,6.17,22.52,7.29,34.1c0.22,9.02,1.32,18.28-1.2,27.1c-3.3-8.44-3.32-17.66-5.99-26.27
		c-1.57-6.63-4.79-12.72-6.47-19.29C986.96,1117.61,990.67,1112.42,993.92,1107.86z M879.64,1210.1c3.82,6.73,5.3,14.38,7.73,21.65
		c3.78,12.26,6.23,24.9,10.04,37.15c2.58,8,3.02,16.47,5.26,24.55c2.96,10.38,4.73,21.05,6.27,31.72
		c1.12,8.77,2.76,17.72,0.98,26.53c-4.17-7.63-5.57-16.31-8.35-24.46c-2.69-10.96-6.61-21.54-9.53-32.42
		c-3.59-11.64-5.88-23.61-8.52-35.47c-1.47-11.15-3.82-22.17-4.67-33.39C878.27,1220.67,878.03,1215.24,879.64,1210.1z
		 M790.23,1298.35c2.37-6.95,5.88-14.47,12.98-17.63c1.05,1.83-0.25,3.77-0.88,5.52c-3.27,6.86-5.85,14.08-7.1,21.6
		c-0.55,3.52-1.73,6.89-3.23,10.12C788.58,1312.02,788.05,1304.81,790.23,1298.35z M764.19,1542.83c1.95,3.72,3.23,7.75,4.1,11.87
		c2.65,12.54,7.03,24.68,8.9,37.39c1,7.64,5.42,14.41,5.73,22.2c-2.48-1.86-5.27-3.58-6.82-6.36c-1.81-3.34-2.45-7.13-3.34-10.77
		c-5.66-22.36-12.92-44.26-19.79-66.25c-2.35-10.06-6.51-19.62-8.21-29.83c-1.11-6.27-2.88-12.69-1.04-19.01
		c5.09,12.25,8.34,25.17,12.21,37.85C758.42,1527.64,760.35,1535.62,764.19,1542.83z M746.75,1469.07c-0.08,1.98-0.17,3.98-0.24,6
		c-4.05-2.08-8.02-4.31-11.71-6.97C738.67,1465.42,743.1,1466.67,746.75,1469.07z M720.23,1407.28c0.59,0.05,1.78,0.14,2.38,0.19
		c2.72,11.83,5.58,23.66,9.66,35.11c1.53,4.35,5.46,7.05,8.05,10.68c-0.79,1.79-2.21,3.18-3.42,4.7
		c-4.18,4.67-7.01,10.3-10.23,15.63c-0.53-0.01-1.6-0.04-2.14-0.05c-4.63-10.98-5.78-22.98-6.92-34.72
		C717.32,1428.26,718.24,1417.64,720.23,1407.28z M659.64,1590c0.33-4.88,2.38-9.54,6.81-11.98c1.93,7.91,1.35,16.12,2.45,24.16
		c1.42,12.38,4.22,24.66,8.74,36.29c3.57,9.66,7.01,19.38,11.27,28.77c3.75,8.26,6.56,16.91,9.61,25.45
		c2.18,6.53,6.92,12.09,7.5,19.15c-2.88-1.33-5.15-3.58-6.48-6.45c-3.8-7.71-9.5-14.32-12.9-22.25c-3.55-8-7.78-15.67-11.14-23.74
		c-3.57-9.25-7.44-18.4-10.04-27.98C661.72,1618,656.82,1604.1,659.64,1590z M612.22,1766.69c2.81,2.54,5.64,5.24,7.21,8.77
		c1.83,3.53,2.61,7.59,4.85,10.93c2.38,2.1,5.71,2.63,8.55,3.92c7.08,2.59,11.69,8.88,16.83,14.04c6.25,6.32,9.75,14.65,13.16,22.71
		c1.59,3.58,1.74,7.53,1.64,11.4c-4-6.76-6.45-14.35-11.22-20.67c-5.45-7.42-10.31-15.94-18.65-20.49
		c-4.29-2.53-9.01-4.24-13.26-6.83c-1.95-0.96-2.37-3.22-2.98-5.06C616.83,1778.94,611.68,1773.68,612.22,1766.69z M604.14,1866.05
		c4.38,6.94,7,14.76,10.71,22.05c3.57,7.71,7.71,15.35,9.25,23.8c1.58,8.64,2.08,17.42,2.67,26.17c0.64,7.78,2.05,15.88-0.72,23.44
		c-5.45-5.68-8.06-13.19-11.76-19.96c-5.67-10.49-10.59-21.35-15.83-32.05c-2.57-6.58-7.13-13.12-5.88-20.52
		C594,1880.42,597.45,1871.85,604.14,1866.05z M585.18,1869.25c-1.16,1.59-3.51,3.74-5.35,1.78c-3.75-4.54-5.72-10.23-8.17-15.52
		c-4.09-9.2-7.15-19.06-7.04-29.22c0.18-7.96-3.34-15.4-3.44-23.33c7.88,7.33,12.97,16.95,19.29,25.54
		c6.34,9.23,14.59,17.37,18.46,28.1C593.81,1860.19,589,1864.26,585.18,1869.25z M631.58,2087.32c-2.74,10.18-6.12,20.17-8.81,30.37
		c-3.77,10.8-7.41,21.66-10.08,32.81c-2.17,8.52-4.77,16.93-7.72,25.22c-3.27,10.82-6.51,21.65-9.55,32.54
		c-1.88,5.25-2.92,10.82-5.28,15.91c-2.94,4.6-10.67,1.69-11.3-3.25c0.55-4.57,2.55-8.78,3.8-13.15c2.68-8.87,4.67-17.96,8.31-26.5
		c4.09-9.71,5.22-20.31,8.81-30.17c6.35-20.03,15.39-39.13,20.87-59.44c6.66-18.99,12.13-38.42,19.84-57.03
		c4.71-10.91,8.49-22.19,12.86-33.24c6.67-15.76,14.31-31.17,19.36-47.56c3-9.92,8.1-19.01,11.34-28.83
		c6.79-16.69,13.28-33.52,21.02-49.79c2.86-6.56,4.97-13.44,8.46-19.71c4.12-8.03,7.26-16.52,11.39-24.55
		c5.46-12.67,10.5-25.53,15.61-38.35c3.16-9.09,8.22-17.34,11.71-26.29c2.71-6.92,5.8-13.67,8.41-20.62
		c3.74-11.02,6.93-22.35,12.71-32.53c2.3-4.07,4.33-8.28,6.34-12.49c2.85,9.55-3.44,18.28-5.99,27.14
		c-2.59,9.25-7.63,17.54-10.35,26.74c-1.11,3.4-2.43,6.75-3.92,10.02c-3.13,6.6-5,13.78-8.93,20.01
		c-4.81,7.71-6.61,16.73-10.1,25.03c-3.55,8.49-7.09,16.98-10.47,25.54c-2.85,7.26-6.91,13.97-9.62,21.29
		c-4.37,11.82-10.6,22.84-15.24,34.56c-3.4,8.58-6.85,17.14-10.13,25.77c-2.36,7.07-4.18,14.31-6.93,21.25
		c-7.22,21.37-17.85,41.39-25.16,62.72c-3.46,9.8-7.34,19.45-10.57,29.33C644.98,2049,637.99,2068.06,631.58,2087.32z
		 M683.27,2088.35c-6.18,1.7-12.78,2.33-18.41,5.61c-2.82,1.56-5.86,2.68-8.9,3.75c0.55-3.45,1.07-7.43,4.3-9.46
		c7.23-5.08,16.37-5.97,24.88-7.22c16.61-1.37,33.27,0.14,49.87,0.89c6.83,0.43,13.67,1.32,20.15,3.64
		C731.53,2091.77,706.92,2082.22,683.27,2088.35z M783.71,2053.36c-10.411-1.338-21.094-1.598-31.574-2.382
		c-9.262-0.693-18.525-1.386-27.787-2.079c-8.683-0.65-17.667-0.197-26.38,0.411c-9.14-0.35-17.57,3.59-26.43,5.06
		c0.6-2.9,0.18-6.96,3.49-8.3c7.6-3.16,16.01-3.33,24.09-4.13c13.264-0.796,26.924,0.917,40.146,1.722
		c13.788,0.839,27.559,1.944,41.304,3.316c5.823,0.581,11.919,1.423,17.781,1.262c3.79-0.1,7.62,0.13,11.27,1.3
		C802.04,2054.89,792.45,2054.04,783.71,2053.36z M821.42,1949.4c-11.09,5.15-23.52,4.69-35.42,5.82
		c-14.7-0.07-29.37-1.48-44.03-2.53c-6.72-0.6-13.42,0.42-20.11,0.84c0.84-5.21,4.48-9.15,8.65-12.07
		c7.05-5.26,15.13-9.24,23.77-11.09c12.99-3.22,26.46-1.79,39.69-1.67c11.67,1.11,23.42,0.2,35.1,1.11c3.32,0.15,6.5,1.2,9.47,2.67
		C834.28,1939.32,829.33,1946.52,821.42,1949.4z M866.39,1948.36c-6.17,2.35-12.29,5.79-19.12,5.24
		c4.63-6.58,9.46-13.19,11.68-21.04c10.87-0.34,21.67,1.18,32.54,1.27C885,1941.44,875.24,1944.46,866.39,1948.36z
		 M975.222,1754.885c-5.77,1.328-11.548,2.791-17.451,3.434c-19.808,2.158-39.807,0.595-59.683,0.584
		c-12.48-0.007-24.96,0.183-37.434,0.569c-6.376,0.197-12.75,0.446-19.121,0.746c-5.417,0.255-10.901-0.694-16.254,0.391
		c-3.63,0.7-7.32,0.81-10.98,1.03c1.45-3.64,2.34-8.37,6.36-10.06c4.95-2.09,10.47-1.24,15.69-1.2c8.05,0.47,15.93-1.64,23.93-2.06
		c24.808-2.172,49.449,0.351,74.222,0.292c17.872-0.042,35.743-0.085,53.615-0.127c3.36-0.008,22.441-2.033,23.485,1.324
		c1.174,3.775-18.578,2.385-21.042,2.531C985.402,1752.646,980.315,1753.713,975.222,1754.885z M1035.98,1803.93
		c-8.26,4.03-17.14,6.63-25.43,10.61c-8.1,3.87-18.06,6.04-26.42,1.67c8.37-4.25,17.55-6.41,26.26-9.8
		c5.99-2.04,11.36-5.45,17.18-7.88c3.91-1.7,8.19-2.11,12.41-2.39C1040.42,1799.32,1039.09,1802.65,1035.98,1803.93z
		 M1054.07,1692.49c-7.85,0-15.75,0.37-23.53-0.89c-9.27-1.54-18.77-0.93-27.97-3c-22.8-4.71-45.83-8.14-68.9-11.19
		c-13.04-2.05-26.21-3.13-39.38-3.67c-11.31,0.68-22.67,1.32-33.82,3.4c-8.38,1.48-17.02,2.66-24.62,6.76
		c-6.27,3.36-12.62,6.57-19.34,8.95c-0.37-0.48-1.1-1.46-1.47-1.94c3.84-3.49,7.87-6.92,12.75-8.86c6.19-2.55,12.31-5.25,18.44-7.91
		c11.34-4.71,23.65-6.14,35.75-7.47c13.97-0.55,28.03-0.49,41.93,1.24c20.96,2.69,41.21,9.28,62.21,11.85
		c9.64,1.18,19.15,3.49,28.88,3.97c12.55,0.86,24.91,3.89,37.54,3.62c3.46-0.25,6.74,0.94,9.71,2.65
		C1059.7,1691.3,1057,1692.59,1054.07,1692.49z M1120.647,1629.497c-14.404-0.035-28.806-1.391-42.965-4.036
		c-19.869-3.71-38.49-10.871-57.752-16.572c-37.679-11.143-75.498-22.693-115.256-20.756c-4.96,0.242-10.321,0.265-15.11,1.529
		c-2.366,0.625-4.652,1.312-7.138,1.556c-1.323,0.128-5.737,0.479-6.735-0.294c-2.5-1.937,2.382-5.679,4.2-6.308
		c4.238-1.466,9.1-1.566,13.494-2.762c4.732-1.287,9.581-2.142,14.457-2.649c9.805-1.02,19.727-0.606,29.482,0.721
		c22.896,3.113,47.235,9.596,67.976,19.833c10.05,4.96,21.45,6.01,31.72,10.37c11.74,5.22,24.6,6.96,36.95,10.2
		c12.09,3.35,24.72,2.74,37.13,3.38c13.828,1.507,27.626-0.201,41.469-1.14c-2.994,4.886-9.52,5.978-15.237,6.373
		C1131.779,1629.327,1126.213,1629.511,1120.647,1629.497z M1234.77,1540.66c-12.02,2.55-24.04,5.54-36.4,5.75
		c-7.19,0.01-14.96,1.42-21.55-2.25c-7.311-4.104-14.689-8.104-22.062-12.094c-6.588-3.566-12.82-7.994-19.422-11.651
		c-7.64-4.232-15.51-8.049-23.563-11.428c-7.766-3.259-15.833-5.281-23.634-8.066c-5.15-1.68-10.33-4.19-15.89-3.61
		c-4.29,0.59-7.77,3.4-11.52,5.34c-12.03,6.17-24.32,12.58-37.91,14.34c-7.24-0.36-14.16-2.98-21.17-4.64
		c-14.56-4.09-29.83-4.48-44.84-3.78c-21.14,1.13-41.25,8.83-59.9,18.42c-4.87,2.65-9.43,6.46-15.24,6.58
		c5.46-7.26,13.84-11.21,21.69-15.3c8.99-4.86,18.96-7.42,28.74-10.18c20.6-5.78,42.42-5.69,63.48-2.66
		c7.65,1.14,15.12,3.23,22.52,5.49c7.56,2.3,15.3-0.67,22.27-3.51c9.25-4.28,18.41-8.75,27.3-13.74
		c4.707-2.659,9.951-1.813,15.229-1.599c5.84,0.237,11.672,0.684,17.48,1.339c9.808,1.103,19.55,2.801,29.154,5.08
		c9.304,2.208,18.616,5.277,28.046,6.87c5.96,0.96,11.65,3.04,17.49,4.53c10.29,2.28,20.43,5.18,30.72,7.51
		c10.1,3.08,20.64,4.21,30.8,7.07c7.39,2.17,15.39,2.41,22.19,6.37C1251.71,1536.05,1243.13,1538.41,1234.77,1540.66z
		 M1332.078,1565.037c-5.185,2.347-10.498,4.387-16.159,5.775c-12.074,2.958-25.906,4.17-38.108,1.219
		c-5.645-1.365-11.369-1.367-16.932-3.223c-0.917-0.306,8.762-15.9,9.603-17.209c3.728-5.802,5.373-12.482,9.088-18.118
		c0.432-0.655,8.358,0.992,9.38,1.155c2.78,0.442,5.291,1.309,7.964,1.969c6.806,1.678,14.085,2.207,20.994,3.478
		c6.575,1.21,13.129,2.528,19.66,3.956c3.167,0.692,6.327,1.41,9.482,2.153c3.013,0.71,7.326,0.985,10.041,2.455
		c3.042,1.647,0.317,2.738-2.042,4.365c-2.466,1.701-5.093,3.152-7.761,4.506C1342.198,1560.1,1337.2,1562.718,1332.078,1565.037z
		 M1371.17,1440.41c12.01,0.7,23.98-0.91,35.74-3.23c6.87-1.93,13.58-4.44,20.28-6.89c8.12-3,14.14-10.07,22.73-11.98
		c-4.69,13.93-16.99,23.53-29.87,29.56c-8.41,3.89-17.74,6.04-27.03,5.62c-14.31-0.48-28.85-2.06-42.19-7.59
		c-4.7-1.71-8.57-4.95-11.97-8.52C1349.77,1436.91,1360.25,1441.07,1371.17,1440.41z M1295.27,1431.01c3.9-1.46,7.23,1.29,9.89,3.81
		c8.39,7.97,18.77,13.26,28.29,19.7c7.79,5.35,16.89,8.17,25.74,11.25c10.82,3.53,22.14,5.11,33.51,5.33
		c1.04,6.27,3.4,12.39,3.44,18.8c-0.65,2.8-4.01,2.71-6.26,2.57c-9.79-1.01-19.47-2.85-29.23-4.05c-10.53-1.19-20.81-3.88-31.2-5.87
		c-29.72-5.84-58.75-14.68-87.4-24.38c-17.94-5.21-35.73-10.9-53.53-16.51c-20.7-5.59-40.71-13.62-61.78-17.81
		c-5.47-1-10.74-2.78-15.89-4.81c11.16,0.13,22.22,1.94,33.32,3.07c9.09,0.78,17.99,2.94,27.09,3.76c11.11,1.17,22.09,3.29,33.12,5
		c11.91,1.73,23.71,4.74,35.81,4.67c6.78-0.11,13.54,0.48,20.31,0.86C1272.34,1436.92,1283.88,1433.83,1295.27,1431.01z
		 M1359.55,1100.46c-8.639-7.558-17.319-16.979-23.678-26.52c-5.945-8.92-10.879-17.82-18.246-25.787
		c-14.334-15.499-32.66-27.347-52.796-33.752c-9.463-3.01-19.2-5.175-29.063-6.349c-9.202-1.096-19.626,0.671-28.297-2.552
		c22.809-7.364,49.102-5.486,70.411,5.167c19.576,9.787,37.26,23.328,51.863,39.626c12.881,14.376,24.381,31.156,34.326,47.677
		c3.28,5.69,9.07,9.88,10.7,16.47C1369,1110.57,1364.74,1105,1359.55,1100.46z M1478.94,1070.54c-5.85,0.35-11.41-1.78-16.64-4.13
		c-33.675-15.131-63.007-37.431-92.17-59.59c-6.87-5.22-14.93-8.68-21.34-14.51c10.04,1.37,19.11,6.15,28.53,9.61
		c20.784,7.634,39.979,19.544,60.019,28.898c16.422,7.666,33.04,14.91,49.833,21.724c3.964,1.608,8.234,2.903,12.059,4.808
		c2.529,1.259,2.787,0.62,1.859,3.14c-0.53,1.439-2.532,2.962-3.68,3.907C1492.155,1068.724,1485.557,1070.126,1478.94,1070.54z
		 M1559.58,885.56c-9.16,2.08-18.76,0.76-27.5-2.44c-9.13-2.49-18.14-5.4-26.73-9.36c-9.77-4.22-19.71-7.99-29.36-12.47
		c-9.09-3.12-17.54-7.86-26.8-10.48c-4.62-1.37-9.09-3.23-13.09-5.91c-5.48-3.62-11.8-5.59-17.81-8.08
		c-4.54-1.9-9.49-2.17-14.32-2.46c-6.24-0.36-12.36-2.47-18.64-1.64c-7,0.9-13.96,2.08-20.81,3.74c-6.63,1.69-13.49,0.66-20.22,1.08
		c-8.62,0.43-17.03,2.53-25.6,3.37c5.9-6.33,14.46-8.93,22.7-10.55c5.87-1.19,11.89-0.49,17.8-1.2c6.06-0.75,11.31-4.07,17-6.01
		c4.1-1.44,8.49-1.69,12.81-1.57c5.84,0.15,11.89,0.57,17.23,3.2c9.82,4.76,20.34,7.81,30.67,11.26c8.21,2.92,15.67,7.51,23.43,11.4
		c8.21,4.06,17.16,6.23,25.71,9.44c8.61,3.26,17.53,5.61,26.15,8.88c9.83,3.74,20.18,5.78,30.29,8.66
		c8.24,2.43,16.99,2.57,25.09,5.57C1565.22,882.21,1562.89,884.85,1559.58,885.56z M1639.89,844.47c9.97,1.54,20.07,0.81,30.11,1.02
		c13.63,0.42,27.23-1.91,40.86-0.88c2.24,0.41,4.18,1.75,6.17,2.84c-10.1,3.47-20.74,5.01-31.31,6.11
		c-17.44,0.42-34.89-0.08-52.27-1.43c-6.66-0.86-13.19-2.49-19.6-4.42C1621.49,842.64,1631.21,843.36,1639.89,844.47z
		 M1608.03,829.98c-2.59-0.41-2.26-4.15-0.3-5.24c5.18-3.9,12.18-2.64,17.93-0.88C1620.87,827.88,1614.49,831.72,1608.03,829.98z
		 M1616.93,813.31c-1.83,1.49-3.47,3.6-5.98,3.86c-5.52,0.84-10.76-1.63-15.96-3.06c-7-2.2-14.43-2.41-21.4-4.68
		c-15.01-5.41-29.77-11.6-43.82-19.2c-12.1-5.97-24.4-11.79-35.27-19.87c17.55,4.32,33.85,12.34,50.86,18.3
		c9.67,3.32,19.04,7.59,29,10.03c8.68,2.21,17.15,5.16,25.95,6.92C1606.41,806.73,1611.95,809.68,1616.93,813.31z M1599.33,717.08
		c-7.5-3.2-13.53-8.82-20.45-12.99c-14.67-9.75-31.93-14.18-47.98-21.03c-9.67-4.06-19.72-7.41-30.17-8.68
		c-10.18-1.19-20.37-2.88-30.14-6.04c4.7-1.59,9.6-3.34,14.65-2.55c9.33,1.23,18.77,2.3,27.76,5.23c9.9,3.19,19.82,6.42,29.28,10.8
		c8.9,4.12,18.31,6.94,27.47,10.41c6.2,2.27,11.71,6.04,16.68,10.34C1591.27,706.86,1597.36,710.5,1599.33,717.08z M1652.46,385.73
		c-2.49,5.13-4.91,10.88-10.29,13.61c0.42-7.46,5.45-13.26,8.54-19.74c3.23-6.53,6.34-13.16,10.7-19.04
		C1659.06,369.15,1656.04,377.57,1652.46,385.73z M1786.74,405.59c-13.43,0.96-27.03-1.58-39.28-7.11
		c-6.83-3.19-13.99-5.64-20.69-9.08c10.07-0.94,19.23,3.8,28.71,6.29c5.08,1.43,10.16,3.04,15.46,3.48
		c10.5,0.77,21.06-0.03,31.57,0.81C1798.18,403.86,1792.44,405.45,1786.74,405.59z M1798.99,383.67
		c-14.61-0.52-29.97,0.57-43.52-6.01c6.17-3.07,13.16-2.44,19.81-2.07c9.64,0.87,19.22,2.32,28.87,3.2
		c6.71,0.7,13.54,0.36,20.16,1.91C1816.43,384.59,1807.48,383.57,1798.99,383.67z"/>
</g>
</svg>
